<svg xmlns="http://www.w3.org/2000/svg" width="183.016" height="24.439" viewBox="0 0 183.016 24.439">
  <g id="ec-logo-mono" transform="translate(-0.106)">
    <path id="Path_5418" data-name="Path 5418" d="M178.64,6.172a5.914,5.914,0,0,1,.477-2.432A5,5,0,0,1,180.376,2,5.552,5.552,0,0,1,182.131.983a5.647,5.647,0,0,1,3.93,0,5.552,5.552,0,0,1,1.755,1.04,5.255,5.255,0,0,1,1.259,1.736,5.914,5.914,0,0,1,.477,2.432V7.336H186.3V6.172a2.165,2.165,0,0,0-.639-1.746,2.309,2.309,0,0,0-1.564-.582,2.28,2.28,0,0,0-1.545.553,2.165,2.165,0,0,0-.658,1.746v12.01a2.165,2.165,0,0,0,.658,1.746,2.28,2.28,0,0,0,1.545.553,2.309,2.309,0,0,0,1.545-.553,2.165,2.165,0,0,0,.658-1.746V13.889h-2.547V11.028h5.838v7.126a5.809,5.809,0,0,1-.477,2.442,5.218,5.218,0,0,1-1.259,1.727,5.552,5.552,0,0,1-1.755,1.04,5.647,5.647,0,0,1-3.93,0,5.552,5.552,0,0,1-1.755-1.04,4.961,4.961,0,0,1-1.259-1.727,5.81,5.81,0,0,1-.477-2.442Z" transform="translate(-6.47 -0.029)" fill="#9a9a9a"/>
    <path id="Path_5417" data-name="Path 5417" d="M163.18.82h3.129l4.913,13.689h.067V.82h3.253V23.533h-3.062L166.5,9.882h-.057V23.533H163.18Z" transform="translate(-5.372 -0.037)" fill="#9a9a9a"/>
    <path id="Path_5416" data-name="Path 5416" d="M155.92.82h3.262V23.533H155.92Z" transform="translate(-5.375 -0.037)" fill="#9a9a9a"/>
    <path id="Path_5415" data-name="Path 5415" d="M140.17.82H143.3l4.913,13.689h.067V.82h3.253V23.533h-3.062L143.49,9.882h-.067V23.533H140.17Z" transform="translate(-4.986 -0.037)" fill="#9a9a9a"/>
    <path id="Path_5414" data-name="Path 5414" d="M125.38.819H130.2a5.571,5.571,0,0,1,4.245,1.545,6.01,6.01,0,0,1,1.469,4.35v10.6a6.353,6.353,0,0,1-1.545,4.712,6.105,6.105,0,0,1-4.455,1.507H125.38Zm3.253,19.651h1.507a2.423,2.423,0,0,0,1.908-.687,3.32,3.32,0,0,0,.572-2.146V6.715a3.405,3.405,0,0,0-.544-2.07,2.3,2.3,0,0,0-1.936-.792h-1.507Z" transform="translate(-4.75 -0.037)" fill="#9a9a9a"/>
    <path id="Path_5413" data-name="Path 5413" d="M112.33.82h3.262V20.28h6.439v3.253h-9.7Z" transform="translate(-4.401 -0.037)" fill="#9a9a9a"/>
    <path id="Path_5412" data-name="Path 5412" d="M104.94.82h3.253V23.533H104.94Z" transform="translate(-4.264 -0.037)" fill="#9a9a9a"/>
    <path id="Path_5411" data-name="Path 5411" d="M89.92.82h4.77a6.572,6.572,0,0,1,2.661.477,4.941,4.941,0,0,1,1.8,1.278,4.646,4.646,0,0,1,.954,1.832,7.7,7.7,0,0,1,.382,2.156v.83a7.345,7.345,0,0,1-.143,1.564,3.882,3.882,0,0,1-.429,1.116,3.511,3.511,0,0,1-.706.839,5.723,5.723,0,0,1-.954.687,3.558,3.558,0,0,1,1.688,1.612,6.372,6.372,0,0,1,.544,2.862v1.269A6.611,6.611,0,0,1,99,21.978c-.954,1.068-2.518,1.593-4.646,1.593H89.92Zm3.253,9.31h1.469a2.48,2.48,0,0,0,2.184-.811,4.2,4.2,0,0,0,.563-2.375,3.634,3.634,0,0,0-.62-2.3,2.757,2.757,0,0,0-2.251-.792H93.173Zm0,10.15h1.412a3.434,3.434,0,0,0,1.545-.286,1.908,1.908,0,0,0,.839-.8,2.776,2.776,0,0,0,.353-1.211,15.122,15.122,0,0,0,.067-1.526,9.8,9.8,0,0,0-.1-1.5,2.6,2.6,0,0,0-.4-1.078,1.831,1.831,0,0,0-.849-.649A3.739,3.739,0,0,0,94.613,13h-1.44Z" transform="translate(-3.828 -0.037)" fill="#9a9a9a"/>
    <path id="Path_5410" data-name="Path 5410" d="M80.206,3.853H76.39V.82H87.227V3.853H83.411V23.5H80.206Z" transform="translate(-3.135 -0.037)" fill="#9a9a9a"/>
    <path id="Path_5409" data-name="Path 5409" d="M73.759,18.429A5.237,5.237,0,0,1,72.2,22.178a5.333,5.333,0,0,1-1.669,1.135,5.113,5.113,0,0,1-2.041.42,5.046,5.046,0,0,1-2.041-.42,5.371,5.371,0,0,1-2.862-2.8,5.189,5.189,0,0,1-.41-2.08V.82h3.253V18.162a2.442,2.442,0,0,0,.572,1.784,2.089,2.089,0,0,0,2.862,0,2.442,2.442,0,0,0,.572-1.784V.82H73.7Z" transform="translate(-2.504 -0.037)" fill="#9a9a9a"/>
    <path id="Path_5408" data-name="Path 5408" d="M59.27,18.458a5.142,5.142,0,0,1-.4,2,5.275,5.275,0,0,1-1.1,1.679,5.514,5.514,0,0,1-1.641,1.145,4.855,4.855,0,0,1-2.032.439,7.193,7.193,0,0,1-1.908-.258,4.512,4.512,0,0,1-2.985-2.528,5.838,5.838,0,0,1-.5-2.585V5.847a5.476,5.476,0,0,1,.382-2.07,4.922,4.922,0,0,1,1.087-1.66A5.094,5.094,0,0,1,51.848.982,5.58,5.58,0,0,1,54.033.61a5.352,5.352,0,0,1,2.08.372,4.989,4.989,0,0,1,1.66,1.145,5.285,5.285,0,0,1,1.1,1.717,5.857,5.857,0,0,1,.4,2.184V7.316H56.017V6.228a2.633,2.633,0,0,0-.544-1.66A1.755,1.755,0,0,0,54,3.844a1.66,1.66,0,0,0-1.612.744,4.026,4.026,0,0,0-.4,1.908V18.152a3.024,3.024,0,0,0,.429,1.66,1.717,1.717,0,0,0,1.555.668,2.671,2.671,0,0,0,.687-.1A1.824,1.824,0,0,0,55.826,19.3a2.862,2.862,0,0,0,.191-1.116V17.046H59.27Z" transform="translate(-1.594 -0.027)" fill="#9a9a9a"/>
    <path id="Path_5407" data-name="Path 5407" d="M35.89.82h9.7V3.853H39.152v6.677h5.619v3.062H39.152V20.27h6.439v3.253h-9.7Z" transform="translate(-1.648 -0.037)" fill="#9a9a9a"/>
    <g id="Group_4506" data-name="Group 4506">
      <path id="Path_5419" data-name="Path 5419" d="M13.48,0V4.235a8,8,0,0,1,0,15.969V24.43a12.229,12.229,0,0,0,0-24.42Z" transform="translate(-0.616)" fill="#9a9a9a"/>
      <path id="Path_5420" data-name="Path 5420" d="M14.094,12.22a2.108,2.108,0,0,0-2.108-2.108H4.517a8.042,8.042,0,0,1,7.336-5.886V0a12.229,12.229,0,0,0,0,24.439V20.214a8.032,8.032,0,0,1-7.336-5.9h7.469a2.108,2.108,0,0,0,2.108-2.089Z" fill="#9a9a9a"/>
    </g>
  </g>
</svg>
