<svg xmlns="http://www.w3.org/2000/svg" width="45" height="45" viewBox="0 0 45 45">
  <g id="manageyourads" transform="translate(12 13)">
    <rect id="Rectangle_1906" data-name="Rectangle 1906" width="45" height="45" rx="8" transform="translate(-12 -13)" fill="#fb0" opacity="0.15"/>
    <g id="noun_ads_2489411" transform="translate(-1 -5.996)">
      <g id="_18_Promotion" data-name="18 Promotion" transform="translate(0 5.996)">
        <path id="Path_5384" data-name="Path 5384" d="M54.745,27.489h2.234a.745.745,0,1,0,0-1.489H54.745a.745.745,0,1,0,0,1.489Z" transform="translate(-33.893 -18.552)" fill="#fb0"/>
        <path id="Path_5385" data-name="Path 5385" d="M54.744,14.979a.738.738,0,0,0,.412-.125l2.234-1.489a.745.745,0,1,0-.826-1.239L54.33,13.614a.745.745,0,0,0,.414,1.364Z" transform="translate(-33.892 -9.764)" fill="#fb0"/>
        <path id="Path_5386" data-name="Path 5386" d="M57.392,37.614l-2.234-1.489a.745.745,0,1,0-.826,1.239l2.234,1.489a.745.745,0,1,0,.826-1.239Z" transform="translate(-33.893 -24.828)" fill="#fb0"/>
        <path id="Path_5387" data-name="Path 5387" d="M17.873,11.955H15.639V6.742A.745.745,0,0,0,14.5,6.109L8.723,9.721H2.234A2.236,2.236,0,0,0,0,11.955v4.468a2.236,2.236,0,0,0,2.234,2.234h.745v5.958a.745.745,0,0,0,.745.745H7.454a.745.745,0,0,0,.667-1.076L7.447,22.26v-3.6H8.723L14.5,22.269a.745.745,0,0,0,1.139-.633V16.423h2.234a.745.745,0,0,0,.745-.745V12.7A.745.745,0,0,0,17.873,11.955ZM1.489,16.423V11.955a.745.745,0,0,1,.745-.745H8.192v5.958H2.234A.745.745,0,0,1,1.489,16.423Zm4.505,6.193.419,1.254H4.468V18.657H5.958v3.723A.745.745,0,0,0,5.995,22.616Zm8.154-2.324L9.681,17.5V10.878l4.468-2.793Zm2.979-5.359H15.639V13.444h1.489Z" transform="translate(0 -5.996)" fill="#fb0"/>
      </g>
    </g>
  </g>
</svg>
