<svg xmlns="http://www.w3.org/2000/svg" width="45" height="45" viewBox="0 0 45 45">
  <g id="icon" transform="translate(12 13)">
    <rect id="Rectangle_1906" data-name="Rectangle 1906" width="45" height="45" rx="8" transform="translate(-12 -13)" fill="#fb0" opacity="0.15"/>
    <g id="noun_support_2839848" transform="translate(-51.694 -23.033)">
      <g id="Group_4481" data-name="Group 4481" transform="translate(52.695 21.033)">
        <g id="Group_4474" data-name="Group 4474" transform="translate(14.469 8.404)">
          <path id="Path_5388" data-name="Path 5388" d="M749.462,411.354h.3a1.767,1.767,0,0,0,1.762-1.762v-4.629a1.767,1.767,0,0,0-1.762-1.762h-.3a1.767,1.767,0,0,0-1.762,1.762v4.629A1.767,1.767,0,0,0,749.462,411.354Z" transform="translate(-747.472 -402.97)" fill="#fb0"/>
          <g id="Group_4473" data-name="Group 4473">
            <path id="Path_5389" data-name="Path 5389" d="M739.618,401.61a4.617,4.617,0,0,0,.468-.009,1.991,1.991,0,0,0,1.751-1.478,2.589,2.589,0,0,0,.065-.673v-4.419a2.02,2.02,0,0,0-1.575-1.986A3.063,3.063,0,0,0,739.7,393a2.191,2.191,0,0,0-.673.09,2.007,2.007,0,0,0-1.191,1.019,3.39,3.39,0,0,0-.208,1.552V399.5a2.237,2.237,0,0,0,.124.809,2.011,2.011,0,0,0,1.864,1.3.226.226,0,0,0,0-.452,1.555,1.555,0,0,1-1.536-1.557v-1.328c0-1.094-.009-2.185,0-3.278a1.554,1.554,0,0,1,.5-1.136,1.622,1.622,0,0,1,1.136-.4,2.219,2.219,0,0,1,.56.045,1.537,1.537,0,0,1,1.168,1.491c.009,1.073,0,2.144,0,3.217v1.38a1.572,1.572,0,0,1-.28.913,1.535,1.535,0,0,1-1.132.651c-.14.009-.28,0-.42,0A.225.225,0,0,0,739.618,401.61Z" transform="translate(-737.628 -393)" fill="#fb0"/>
          </g>
        </g>
        <g id="Group_4476" data-name="Group 4476" transform="translate(0 8.404)">
          <path id="Path_5390" data-name="Path 5390" d="M109.062,411.354h.3a1.767,1.767,0,0,0,1.762-1.762v-4.629a1.767,1.767,0,0,0-1.762-1.762h-.3a1.767,1.767,0,0,0-1.762,1.762v4.629A1.767,1.767,0,0,0,109.062,411.354Z" transform="translate(-107.072 -402.97)" fill="#fb0"/>
          <g id="Group_4475" data-name="Group 4475">
            <path id="Path_5391" data-name="Path 5391" d="M99.218,401.61a4.617,4.617,0,0,0,.468-.009,1.991,1.991,0,0,0,1.751-1.478,2.591,2.591,0,0,0,.066-.673v-4.419a2.02,2.02,0,0,0-1.575-1.986A3.063,3.063,0,0,0,99.3,393a2.191,2.191,0,0,0-.673.09,2.007,2.007,0,0,0-1.191,1.019,3.39,3.39,0,0,0-.208,1.552V399.5a2.236,2.236,0,0,0,.124.809,2.011,2.011,0,0,0,1.864,1.3.226.226,0,0,0,0-.452,1.555,1.555,0,0,1-1.536-1.557v-1.328c0-1.094-.009-2.185,0-3.278a1.554,1.554,0,0,1,.5-1.136,1.622,1.622,0,0,1,1.136-.4,2.219,2.219,0,0,1,.56.045,1.537,1.537,0,0,1,1.168,1.491c.009,1.073,0,2.144,0,3.217v1.38a1.572,1.572,0,0,1-.28.913,1.535,1.535,0,0,1-1.132.651c-.14.009-.28,0-.42,0A.225.225,0,0,0,99.218,401.61Z" transform="translate(-97.228 -393)" fill="#fb0"/>
          </g>
        </g>
        <g id="Group_4478" data-name="Group 4478" transform="translate(0.002)">
          <g id="Group_4477" data-name="Group 4477">
            <path id="Path_5392" data-name="Path 5392" d="M98.655,36.059V30.718a10.809,10.809,0,0,1,.079-1.48c-.009.061-.016.12-.025.181a8.678,8.678,0,0,1,.605-2.205l-.068.163a8.853,8.853,0,0,1,.605-1.173c.113-.183.23-.359.357-.533.032-.045.066-.088.1-.131l.036-.047c.072-.1-.108.138-.034.043s.136-.172.208-.253a8.748,8.748,0,0,1,.906-.924c.079-.068.158-.136.239-.2.038-.032.077-.063.115-.093s.136-.1-.043.032l.072-.054c.174-.131.355-.258.54-.375a8.8,8.8,0,0,1,1.3-.685l-.163.068a8.679,8.679,0,0,1,2.205-.605l-.181.025a8.707,8.707,0,0,1,2.325,0l-.181-.025a8.678,8.678,0,0,1,2.205.605l-.163-.068a8.852,8.852,0,0,1,1.173.605c.183.113.359.23.533.357.045.032.088.066.131.1l.047.036c.1.072-.138-.108-.043-.034s.172.136.253.208a8.747,8.747,0,0,1,.924.906c.068.079.136.158.2.239.032.038.063.077.093.115s.1.136-.032-.043l.054.072c.131.174.258.355.375.54a8.8,8.8,0,0,1,.685,1.3l-.068-.163a8.678,8.678,0,0,1,.605,2.205c-.009-.061-.016-.12-.025-.181a11.41,11.41,0,0,1,.079,1.521v5.716a10.111,10.111,0,0,1-.038,1.308c.009-.061.016-.12.025-.181a4.279,4.279,0,0,1-.28,1.028l.068-.163a4.2,4.2,0,0,1-.382.709c-.036.054-.075.106-.111.158-.084.117.1-.122.025-.032-.018.023-.036.047-.056.07-.086.1-.174.2-.269.3s-.194.185-.3.269c-.023.018-.045.038-.07.056-.093.075.133-.1.043-.034-.056.041-.113.081-.169.12a4.205,4.205,0,0,1-.709.382l.163-.068a4.251,4.251,0,0,1-1.028.28l.181-.025a8.2,8.2,0,0,1-1.1.038h-1.724a.678.678,0,0,0,0,1.356h1.724c.217,0,.436,0,.653,0a4.949,4.949,0,0,0,1.821-.409,4.773,4.773,0,0,0,2.39-2.28,5.051,5.051,0,0,0,.49-1.792c.014-.167.014-.334.014-.5V30.395a9.22,9.22,0,0,0-.594-3.267,9.647,9.647,0,0,0-1.722-2.881,9.4,9.4,0,0,0-2.481-2.022,9.2,9.2,0,0,0-3.077-1.075,9.621,9.621,0,0,0-3.5.093,9.252,9.252,0,0,0-3,1.236,9.509,9.509,0,0,0-2.413,2.205A9.287,9.287,0,0,0,97.3,30.427V36.05a.686.686,0,0,0,.678.678.676.676,0,0,0,.678-.669Z" transform="translate(-97.3 -21.033)" fill="#fb0"/>
          </g>
        </g>
        <g id="Group_4480" data-name="Group 4480" transform="translate(6.888 18.489)">
          <path id="Path_5393" data-name="Path 5393" d="M426.408,860.405a1.4,1.4,0,0,1-1.4,1.4h-1.518a1.388,1.388,0,0,1-.985-.409A1.4,1.4,0,0,1,423.5,859h1.516a1.412,1.412,0,0,1,1.4,1.405Z" transform="translate(-421.648 -858.557)" fill="#fb0"/>
          <g id="Group_4479" data-name="Group 4479">
            <path id="Path_5394" data-name="Path 5394" d="M406.389,841.248c0,.032,0,.063,0,.095,0,.011,0,.02,0,.032,0,.05,0,.041,0-.029a.681.681,0,0,1-.032.149c0,.014-.034.14-.047.142.007-.018.016-.036.023-.052-.009.018-.016.036-.025.054s-.027.052-.043.079-.029.05-.047.075c0,.009-.011.016-.016.025-.023.032-.023.032,0,0,.007-.007.011-.016.018-.023-.011.016-.025.029-.038.045l-.059.065c-.034.036-.072.068-.108.1-.072.063.066-.036.009-.009-.029.016-.056.038-.086.056s-.086.047-.131.07c-.093.047.1-.032,0,0a.639.639,0,0,0-.07.025c-.054.016-.106.027-.163.038-.088.02.029,0,.029,0s-.111.009-.124.009c-.068,0-.133,0-.2,0h-1.383c-.032,0-.061,0-.093,0s-.025,0,.029,0l-.07-.014a1.619,1.619,0,0,1-.172-.047c-.111-.034.081.045-.023-.007-.025-.014-.052-.025-.077-.041a.75.75,0,0,1-.16-.1c.07.068.025.02.011.007-.034-.032-.068-.061-.1-.095s-.038-.043-.059-.066c-.047-.05.056.088,0,0-.032-.05-.063-.1-.09-.149a.615.615,0,0,1-.045-.095c.038.108,0-.007,0-.023a.682.682,0,0,1-.05-.208c0,.1,0,.036,0,.011s0-.075,0-.111a.579.579,0,0,1,.009-.156.533.533,0,0,1-.009.059.567.567,0,0,1,.011-.061c0-.02.009-.041.014-.059s.016-.059.025-.086.036-.131.018-.059.007-.014.014-.027.027-.052.043-.079.068-.127.081-.124l-.034.045c.011-.016.025-.029.038-.045s.025-.029.038-.043a1.621,1.621,0,0,1,.129-.12c.077-.068-.084.054,0,0,.025-.016.05-.034.075-.047.043-.025.086-.047.131-.07.086-.045-.072.018-.011,0,.023,0,.047-.018.07-.025a1.669,1.669,0,0,1,.176-.043c.1-.023-.106.007,0,0l.061,0,.07,0h1.532c.032,0,.061,0,.093,0,.052,0,.047,0-.011,0l.07.014a.561.561,0,0,1,.2.061c-.061-.047-.041-.02-.011,0a1.258,1.258,0,0,1,.122.066l.072.047c.095.066-.032-.036.032.025s.1.1.147.147c.079.081-.047-.077.014.018.018.029.038.057.056.088s.034.061.05.093.068.095.011.02a.608.608,0,0,1,.061.2c0,.025.043.129.007.023a.548.548,0,0,1,0,.138.452.452,0,0,0,.9,0,1.864,1.864,0,0,0-1.03-1.654,1.95,1.95,0,0,0-.829-.194h-1.3a2.2,2.2,0,0,0-1.1.233,1.848,1.848,0,0,0-.1,3.165,2.092,2.092,0,0,0,1.2.3h1a2.465,2.465,0,0,0,1.193-.219,1.869,1.869,0,0,0,.976-1.629.456.456,0,0,0-.452-.452A.464.464,0,0,0,406.389,841.248Z" transform="translate(-402.08 -839.4)" fill="#fb0"/>
          </g>
        </g>
      </g>
    </g>
  </g>
</svg>
