<svg xmlns="http://www.w3.org/2000/svg" width="45" height="45" viewBox="0 0 45 45">
  <g id="icon" transform="translate(12 13)">
    <path id="Path_5421" data-name="Path 5421" d="M8,0H37a8,8,0,0,1,8,8V37a8,8,0,0,1-8,8H8a8,8,0,0,1-8-8V8A8,8,0,0,1,8,0Z" transform="translate(-12 -13)" fill="#fdf3d7"/>
    <g id="Group_4472" data-name="Group 4472">
      <path id="Path_5383" data-name="Path 5383" d="M.861,1.722H19.806a.861.861,0,0,0,0-1.722H.861a.861.861,0,0,0,0,1.722ZM12.917,6.028h6.889a.861.861,0,0,0,0-1.722H12.917a.861.861,0,0,0,0,1.722Zm1.722,4.306h5.167a.861.861,0,0,0,0-1.722H14.639a.861.861,0,0,0,0,1.722Zm0,4.306h5.167a.861.861,0,0,0,0-1.722H14.639a.861.861,0,0,0,0,1.722ZM6.028,15.5A6.028,6.028,0,1,0,0,9.473,6.036,6.036,0,0,0,6.028,15.5Zm0-10.334A4.306,4.306,0,1,1,1.722,9.473,4.311,4.311,0,0,1,6.028,5.167Zm8.611,13.778a.861.861,0,0,0,.609-1.47L10.943,13.17a.861.861,0,1,0-1.218,1.218l4.306,4.306a.859.859,0,0,0,.609.252Z" fill="#fb0"/>
    </g>
  </g>
</svg>
