<svg xmlns="http://www.w3.org/2000/svg" width="173" height="32" viewBox="0 0 173 32">
  <g id="Social" transform="translate(-1387 -6009)">
    <g id="Group_4454" data-name="Group 4454" transform="translate(1005 2408)">
      <rect id="Rectangle_1904" data-name="Rectangle 1904" width="32" height="32" rx="8" transform="translate(382 3601)" fill="#fff" opacity="0.15"/>
      <g id="face" transform="translate(393.576 3607.867)">
        <g id="facebook_1_" data-name="facebook (1)" transform="translate(0 0)">
          <g id="Group_1289" data-name="Group 1289">
            <path id="Path_4355" data-name="Path 4355" d="M133.709,6.279V4a1.142,1.142,0,0,1,1.142-1.142h1.142V0h-2.283a3.425,3.425,0,0,0-3.425,3.425V6.279H128V9.134h2.283v9.134h3.425V9.134h2.283l1.142-2.854Z" transform="translate(-128)" fill="#fff"/>
          </g>
        </g>
      </g>
    </g>
    <g id="Group_4455" data-name="Group 4455" transform="translate(1052 2408)">
      <rect id="Rectangle_1904-2" data-name="Rectangle 1904" width="32" height="32" rx="8" transform="translate(382 3601)" fill="#fff" opacity="0.15"/>
      <g id="twitter" transform="translate(389.681 3609.969)">
        <g id="twitter_2_" data-name="twitter (2)" transform="translate(0 0)">
          <g id="Group_1290" data-name="Group 1290">
            <path id="Path_4356" data-name="Path 4356" d="M17.309,49.665a7.4,7.4,0,0,1-2.045.56,3.529,3.529,0,0,0,1.561-1.961,7.091,7.091,0,0,1-2.25.859A3.548,3.548,0,0,0,8.437,51.55a3.654,3.654,0,0,0,.082.809,10.044,10.044,0,0,1-7.314-3.712A3.55,3.55,0,0,0,2.3,53.39a3.5,3.5,0,0,1-1.6-.437v.039a3.565,3.565,0,0,0,2.843,3.487,3.542,3.542,0,0,1-.93.117,3.137,3.137,0,0,1-.672-.061,3.582,3.582,0,0,0,3.316,2.472,7.13,7.13,0,0,1-4.4,1.513A6.648,6.648,0,0,1,0,60.471a9.99,9.99,0,0,0,5.444,1.592,10.03,10.03,0,0,0,10.1-10.1c0-.157-.005-.308-.013-.459A7.079,7.079,0,0,0,17.309,49.665Z" transform="translate(0 -48)" fill="#fff"/>
          </g>
        </g>
      </g>
    </g>
    <g id="Group_4456" data-name="Group 4456" transform="translate(1099 2408)">
      <rect id="Rectangle_1904-3" data-name="Rectangle 1904" width="32" height="32" rx="8" transform="translate(382 3601)" fill="#fff" opacity="0.15"/>
      <g id="insta" transform="translate(390.241 3609.113)">
        <g id="instagram" transform="translate(0 0)">
          <g id="Group_1292" data-name="Group 1292">
            <g id="Group_1291" data-name="Group 1291">
              <path id="Path_4359" data-name="Path 4359" d="M10.843,0H4.929A4.929,4.929,0,0,0,0,4.929v5.915a4.929,4.929,0,0,0,4.929,4.929h5.915a4.929,4.929,0,0,0,4.929-4.929V4.929A4.929,4.929,0,0,0,10.843,0Zm3.45,10.843a3.454,3.454,0,0,1-3.45,3.45H4.929a3.454,3.454,0,0,1-3.45-3.45V4.929a3.454,3.454,0,0,1,3.45-3.45h5.915a3.454,3.454,0,0,1,3.45,3.45Z" fill="#fff"/>
            </g>
          </g>
          <g id="Group_1294" data-name="Group 1294" transform="translate(3.943 3.943)">
            <g id="Group_1293" data-name="Group 1293">
              <path id="Path_4360" data-name="Path 4360" d="M131.943,128a3.943,3.943,0,1,0,3.943,3.943A3.943,3.943,0,0,0,131.943,128Zm0,6.407a2.464,2.464,0,1,1,2.464-2.464A2.468,2.468,0,0,1,131.943,134.407Z" transform="translate(-128 -128)" fill="#fff"/>
            </g>
          </g>
          <g id="Group_1296" data-name="Group 1296" transform="translate(11.599 3.122)">
            <g id="Group_1295" data-name="Group 1295">
              <ellipse id="Ellipse_5" data-name="Ellipse 5" cx="0.525" cy="0.525" rx="0.525" ry="0.525" fill="#fff"/>
            </g>
          </g>
        </g>
      </g>
    </g>
    <g id="Group_4457" data-name="Group 4457" transform="translate(1146 2408)">
      <rect id="Rectangle_1904-4" data-name="Rectangle 1904" width="32" height="32" rx="8" transform="translate(382 3601)" fill="#fff" opacity="0.15"/>
      <g id="Group_4458" data-name="Group 4458" transform="translate(388.521 3611.002)">
        <g id="google-hangouts" transform="translate(0 0)">
          <path id="Path_4357" data-name="Path 4357" d="M6.03,2.18A3.84,3.84,0,0,1,9.081,3.716l1.547-1.558a5.99,5.99,0,1,0,1.166,5.471,5.81,5.81,0,0,0,.229-1.635V5.449H6.574V7.628H9.462A3.792,3.792,0,0,1,6.03,9.808a3.85,3.85,0,0,1-3.85-3.814A3.85,3.85,0,0,1,6.03,2.18Zm0,0" transform="translate(0 0)" fill="#fff"/>
          <path id="Path_4358" data-name="Path 4358" d="M364.814,90h-2.18v1.635H361v2.179h1.635v1.635h2.18V93.814h1.671V91.635h-1.671Zm0,0" transform="translate(-347.887 -86.731)" fill="#fff"/>
        </g>
      </g>
    </g>
  </g>
</svg>
